<svg xmlns="http://www.w3.org/2000/svg" width="28" height="28" viewBox="0 0 28 28">
  <g fill="none" opacity=".8" transform="rotate(-90 14 13)">
    <circle cx="13.464" cy="12.536" r="11.607" fill="#D8D8D8"/>
    <path fill="#333333" stroke="#333333" d="M12.9651429,0 C5.81642857,0 0,5.81621429 0,12.9652143 C0,20.1139286 5.81642857,25.9303571 12.9651429,25.9303571 C20.1139286,25.9303571 25.9303571,20.1143571 25.9303571,12.9652143 C25.9303571,5.81578571 20.1139286,0 12.9651429,0 Z M12.9651429,25.0942857 C7.71607143,25.0942857 3.23657143,21.7415 1.55157143,17.0665714 L15.6856429,17.0939286 L13.1525714,19.6274286 L13.7892857,20.2637857 L17.4063571,16.6459286 L14.5381429,13.7781429 L13.9017857,14.4148571 L15.6812143,16.1942143 L1.26814286,16.1656429 C0.988571429,15.1458571 0.836428571,14.0737143 0.836428571,12.966 C0.836428571,6.278 6.27714286,0.837285714 12.9651429,0.837285714 C18.2138571,0.837285714 22.6939286,4.1895 24.3787143,8.86521429 L10.3152857,8.83807143 L12.8485714,6.30478571 L12.212,5.66828571 L8.5945,9.28614286 L11.4625714,12.154 L12.0990714,11.5175 L10.3197143,9.73771429 L24.6621429,9.76628571 C24.9419286,10.7867857 25.0938571,11.8590714 25.0938571,12.9669286 C25.0939286,19.6528571 19.6527857,25.0942857 12.9651429,25.0942857 Z"/>
  </g>
</svg>
