<?xml version="1.0" encoding="utf-8"?>
<svg version="1.1" xmlns="http://www.w3.org/2000/svg" xmlns:xlink="http://www.w3.org/1999/xlink" height="28.70463010947833" width="27.479288312603558">
  <defs>
    <rect id="rect-0" opacity="1" x="2.352315054739165" y="9.209457911882055" width="20.57142857142858" height="17.142857142857146" rx="0" ry="0"/>
    <path id="path-1" opacity="1" fill-rule="evenodd" d="M20.043023760096407,4.42381338063201 L20.043023760096407,2.352315054739165 L19.245311706524973,2.352315054739165 L19.245311706524973,4.42381338063201 L9.01065768866777,4.42381338063201 L9.01065768866777,2.352315054739165 L8.212841003399909,2.352315054739165 L8.212841003399909,4.42381338063201 L3.242207632864165,4.42381338063201 L3.242207632864165,26.308160478846176 L25.126973257864293,26.308160478846176 L25.126973257864293,4.42381338063201 L20.043023760096407,4.42381338063201 L20.043023760096407,4.42381338063201ZM8.212841003399909,5.2216300658998644 L8.212841003399909,6.540721862774856 L9.01065768866777,6.540721862774856 L9.01065768866777,5.2216300658998644 L19.24489317973926,5.2216300658998644 L19.24489317973926,6.540721862774856 L20.04270986500712,6.540721862774856 L20.04270986500712,5.2216300658998644 L24.328842677507147,5.2216300658998644 L24.328842677507147,9.067472699828414 L4.040024318132027,9.067472699828414 L4.040024318132027,5.2216300658998644 L8.212841003399909,5.2216300658998644 L8.212841003399909,5.2216300658998644ZM4.040024318132027,9.864766226614123 L4.040024318132027,25.510448425274753 L24.32926120429286,25.51002989848904 L24.32926120429286,9.864766226614123 L4.040024318132027,9.864766226614123 L4.040024318132027,9.864766226614123Z"/>
    <path id="path-2" opacity="1" fill-rule="evenodd" d="M10.093313065085434,20.02915070933544 L10.719184931380699,19.45154625251093 C12.369034513553402,17.862331767831265 13.416143148650896,16.6939529377477 13.416143148650896,15.248738453068032 C13.416143148650896,14.129028146661348 12.706505265642539,12.973418118806194 11.020354847815241,12.973418118806194 C10.117647326923876,12.973418118806194 9.346973232216353,13.310487756689202 8.80486738263418,13.768426475352154 L9.14193702051719,14.514365194015106 C9.503340920238639,14.213596391786695 10.093313065085436,13.852593606271373 10.803753176506047,13.852593606271373 C11.971329778177358,13.852593606271373 12.356666825531118,14.586966865324298 12.356666825531118,15.38197522187026 C12.344700251714961,16.5611172831516 11.441591616617469,17.57312842521288 9.443106936951729,19.474677171730985 L8.6121988589573,20.281652102093105 L8.6121988589573,20.93145711602068 L13.609613900740033,20.93145711602068 L13.609613900740033,20.053083856967756 L10.093714179291563,20.053083856967756 L10.093714179291563,20.029150709335443 L10.093313065085434,20.02915070933544Z"/>
    <path id="path-3" opacity="1" fill-rule="evenodd" d="M18.094443188443805,16.707122854182096 L18.094443188443805,16.682788592343655 C19.05698357841595,16.33375238064449 19.539256558917344,15.647646531062318 19.539256558917344,14.840671600700201 C19.539256558917344,13.889696670338084 18.840381907106757,12.974220347218306 17.299033717691717,12.974220347218306 C16.456961294293386,12.974220347218306 15.661952937747426,13.274989149446718 15.253083856967482,13.576159065881258 L15.529518397357453,14.34683316058878 C15.866588035240463,14.106699455853402 16.468526753903415,13.829061572845045 17.095200848610936,13.829061572845045 C18.069707812399237,13.829061572845045 18.467813661981413,14.382732882037248 18.467813661981413,15.009406976744769 C18.467813661981413,15.9368498736807 17.492504469780854,16.33375238064449 16.721830375073335,16.33375238064449 L16.131858230226538,16.33375238064449 L16.131858230226538,17.127958508778196 L16.721830375073335,17.127958508778196 C17.745406976744643,17.127958508778196 18.732281628555228,17.597462687051177 18.744248202371384,18.69364096003168 C18.755813661981414,19.343445973959255 18.335379121591444,20.21025377340215 16.974732882037124,20.21025377340215 C16.240359622984197,20.21025377340215 15.541484971173613,19.909484971173736 15.240716168945202,19.717217561702988 L14.952315054739074,20.53575795167513 C15.337652102092836,20.78866045863892 16.108326196800355,21.06509499902889 16.986298341647153,21.06509499902889 C18.864716168945204,21.06509499902889 19.84002536114576,19.970120068666773 19.84002536114576,18.717172993457858 C19.840426475351883,17.621796948889617 19.05698357841595,16.89898914944672 18.094443188443805,16.707122854182096Z"/>
  </defs>
  <g opacity="0.800000011920929">
    <g opacity="0.800000011920929">
      <use xlink:href="#rect-0" fill="rgb(216,216,216)" fill-opacity="1"/>
    </g>
    <g opacity="1">
      <use xlink:href="#path-1" fill="rgb(51,51,51)" fill-opacity="1"/>
      <use xlink:href="#path-1" fill-opacity="0" stroke="rgb(51,51,51)" stroke-opacity="1" stroke-width="1"/>
    </g>
    <g opacity="1">
      <use xlink:href="#path-2" fill="rgb(51,51,51)" fill-opacity="1"/>
      <use xlink:href="#path-2" fill-opacity="0" stroke="rgb(51,51,51)" stroke-opacity="1" stroke-width="1"/>
    </g>
    <g opacity="1">
      <use xlink:href="#path-3" fill="rgb(51,51,51)" fill-opacity="1"/>
      <use xlink:href="#path-3" fill-opacity="0" stroke="rgb(51,51,51)" stroke-opacity="1" stroke-width="1"/>
    </g>
  </g>
</svg>