<?xml version="1.0" encoding="utf-8"?>
<svg version="1.1" xmlns="http://www.w3.org/2000/svg" xmlns:xlink="http://www.w3.org/1999/xlink" height="28" width="28">
  <defs>
    <ellipse id="ellipse-0" opacity="1" rx="14" ry="14" cx="14" cy="14"/>
    <path id="path-1" opacity="1" fill-rule="evenodd" d="M17.176832834879537,9.328083435694378 L19.97916666666664,9.328083435694378 C20.26033465067543,9.328083435694378 20.402082443237276,9.46166737874349 20.40383370717364,9.72825002670288 L20.40383370717364,10.685500462849935 C20.40383370717364,10.967249234517416 20.26091766357419,11.10783322652181 19.980332692464167,11.10783322652181 L18.510916550954157,11.10783322652181 C18.348749955495176,11.10783322652181 18.267083644866922,11.197083155314129 18.267083644866922,11.375 L18.267083644866922,22.765167236328125 C18.267083644866922,23.04749902089437 18.125333627065,23.188083012898765 17.843583742777483,23.188083012898765 L16.66466712951658,23.188083012898765 C16.381750106811506,23.188083012898765 16.24116611480711,23.046332995096844 16.24116611480711,22.765167236328125 L16.24116611480711,18.649166266123455 L16.153083324432355,18.649166266123455 C15.796666622161847,19.272750854492188 15.114166577657048,19.584248860677086 14.105583190917955,19.584248860677086 L13.461583137512196,19.584248860677086 C12.438416639963776,19.584248860677086 11.618832906087233,19.283249537150066 11.003416061401362,18.683582941691082 C10.386833190917965,18.083333333333336 10.08000040054321,17.263166586558025 10.08000040054321,16.22541697820028 L10.08000040054321,11.376166025797527 C10.08000040054321,11.212833404541016 10.013500213623043,11.124166488647461 9.87991682688395,11.108999252319336 L8.58958355585734,11.108999252319336 C8.307833115259807,11.108999252319336 8.166666666666668,10.961416880289715 8.166666666666668,10.664499759674072 L8.166666666666668,9.729417165120443 C8.166666666666668,9.462250391642254 8.308416684468588,9.32866644859314 8.58958355585734,9.32866644859314 L15.142166773478174,9.32866644859314 C14.19425010681151,8.342249790827434 13.305834134419747,7.239749590555827 12.481582959492993,6.014166355133057 L11.23558314641316,4.167333364486694 C11.17783371607462,4.0640833377838135 11.147500356038405,3.952666680018107 11.147500356038405,3.833666682243347 C11.147500356038405,3.6114166577657065 11.258332888285313,3.5 11.481166203816725,3.5 L12.837999661763499,3.5 C13.105166435241689,3.5 13.298250516255685,3.6114166577657065 13.416666666666655,3.833666682243347 L16.59874995549518,8.950083573659262 C16.762083689371725,9.202666680018108 16.95458253224689,9.328083435694378 17.176832834879537,9.328083435694378 L17.176832834879537,9.328083435694378ZM15.785583813985172,17.28125 C16.089500427246076,16.962749163309734 16.24175024032591,16.528749465942383 16.24175024032591,15.980416933695476 L16.242333253224672,11.375 C16.242333253224672,11.197083155314129 16.160666942596418,11.10783322652181 15.997333208719873,11.10783322652181 L12.34916671117146,11.10783322652181 C12.185832977294913,11.10783322652181 12.104166666666659,11.197083155314129 12.104166666666659,11.375 L12.104166666666659,16.023583253224693 C12.104166666666659,17.180916150410972 12.668249448140452,17.75958315531413 13.79525009791055,17.75958315531413 L14.395499706268296,17.75958315531413 C15.019083182016992,17.75958315531413 15.481667200724267,17.60033384958903 15.785583813985172,17.28125 L15.785583813985172,17.28125Z"/>
  </defs>
  <g opacity="1">
    <g opacity="1">
      <use xlink:href="#ellipse-0" fill="rgb(103,58,183)" fill-opacity="1"/>
    </g>
    <g opacity="1">
      <use xlink:href="#path-1" fill="rgb(255,255,255)" fill-opacity="1"/>
    </g>
  </g>
</svg>