<svg xmlns="http://www.w3.org/2000/svg" width="26" height="26" viewBox="0 0 26 26">
  <g fill="none" fill-rule="evenodd" opacity=".8" transform="translate(1 1)">
    <g fill="#D8D8D8" transform="translate(.402 .4)">
      <polygon points="15.737 5.609 0 5.609 0 23.238 21.227 23.238 21.227 17.629 14.541 17.629 14.541 11.285 21.227 11.219 21.227 5.609"/>
      <polygon points="8.662 2.981 0 5.609 6.027 5.609"/>
      <polygon points="18.481 5.609 18.481 0 13.246 1.591 17.276 5.609"/>
      <polygon points="15.267 11.219 23.302 11.219 23.302 17.629 15.267 17.629"/>
    </g>
    <path fill="#333333" fill-rule="nonzero" stroke="#333333" stroke-linecap="square" d="M23.704236,5.60932456 L19.2848022,5.60932456 L19.2848022,0.400825336 C19.2848022,0.273860356 19.2245765,0.154329355 19.1223692,0.0788155319 C19.0201619,0.00310603928 18.8879399,-0.0195872416 18.7661151,0.0173871431 L13.7612946,1.53979331 L12.3370631,0.11755059 C12.1801229,-0.0389547955 11.9258799,-0.0389547955 11.7689397,0.11755059 L8.85103057,3.02737699 L0.284846322,5.62654015 C0.277587854,5.62888772 0.272487275,5.6341698 0.265228806,5.63690867 C0.244630428,5.64512517 0.2248167,5.6551024 0.206180098,5.66684031 C0.18185438,5.67994759 0.159098061,5.69540251 0.137911145,5.7130094 C0.123001833,5.7272905 0.109661923,5.74274542 0.0976952009,5.75956972 C0.0796471371,5.78089362 0.0637569121,5.80417376 0.0506131644,5.82882338 C0.0413929698,5.84721274 0.0333497508,5.866189 0.027072146,5.88575222 C0.0180481141,5.91431444 0.0121628846,5.94365922 0.00922024474,5.97339524 C0.00568906688,5.98532877 0.00255027447,5.99765353 0,6.00997833 L0,23.6387449 C0,23.8600044 0.179892603,24.0393987 0.401766713,24.0393987 L23.704236,24.0393987 C23.9261102,24.0393987 24.1060028,23.8600044 24.1060028,23.6387449 L24.1060028,6.00997833 C24.1060028,5.78852322 23.9261102,5.60932456 23.704236,5.60932456 Z M18.4812688,0.941551444 L18.4812688,5.60932456 L17.8440919,5.60932456 L14.4053377,2.18009594 L18.4812688,0.941551444 Z M12.0530014,0.967179213 L16.7078454,5.60932456 L7.39815736,5.60932456 L12.0530014,0.967179213 Z M7.64318012,4.23129464 L6.26191088,5.60932456 L3.10251006,5.60932456 L7.64318012,4.23129464 Z M23.3024694,17.6289381 L16.0706685,17.6289381 L16.0706685,12.0197851 L23.3024694,12.0197851 L23.3024694,17.6289381 Z M23.3024694,11.2184776 L15.6689019,11.2184776 C15.4470277,11.2184776 15.2671351,11.3976762 15.2671351,11.6191313 L15.2671351,18.0295919 C15.2671351,18.2508514 15.4470277,18.4302457 15.6689019,18.4302457 L23.3024694,18.4302457 L23.3024694,23.2380911 L0.803533426,23.2380911 L0.803533426,6.41063212 L23.3024694,6.41063212 L23.3024694,11.2184776 Z"/>
  </g>
</svg>
