<svg xmlns="http://www.w3.org/2000/svg" width="30" height="24" viewBox="0 0 30 24">
  <g fill="none" fill-rule="evenodd" opacity=".8" transform="translate(0 1)">
    <polygon fill="#D8D8D8" fill-rule="nonzero" points="0 7 0 15 20 23 29 15 29 7 20 15"/>
    <path fill="#333333" fill-rule="nonzero" stroke="#333333" d="M13.8981143,3.5644 C12.0628,4.10531429 10.8566286,5.49948571 11.2041143,6.67834286 C11.5515429,7.8572 13.3210286,8.3744 15.1563429,7.83342857 C16.9916571,7.29251429 18.1978286,5.89834286 17.8504,4.71948571 C17.5029143,3.54062857 15.7334286,3.02348571 13.8981143,3.5644 Z M14.8345143,6.74137143 C13.6558857,7.08874286 12.5628571,6.90365714 12.3932,6.32788571 C12.2234857,5.75217143 13.0414286,5.00382857 14.2200571,4.65645714 C15.3986857,4.30908571 16.4917143,4.49422857 16.6614286,5.06994286 C16.8310286,5.64571429 16.0130857,6.394 14.8345143,6.74137143 Z"/>
    <path fill="#333333" fill-rule="nonzero" stroke="#333333" stroke-width=".7" d="M29,5.4376 L9.13708571,0.00588571429 L1,5.49897143 L20.9682286,12.0806286 L29,5.4376 Z M3.59445714,5.13965714 L9.34325714,1.25811429 L26.5530857,5.96428571 L20.7237714,10.7857143 L3.59445714,5.13965714 Z"/>
    <polygon fill="#333333" stroke="#333333" stroke-width=".7" points="1.031 7.876 1.031 9.091 20.968 15.687 28.969 9.122 28.969 7.629 20.724 14.392"/>
    <polygon fill="#333333" stroke="#333333" stroke-width=".7" points="1.031 11.515 1.031 12.73 20.968 19.326 28.969 12.761 28.969 11.269 20.724 18.031"/>
  </g>
</svg>
