<svg xmlns="http://www.w3.org/2000/svg" width="32" height="29" viewBox="0 0 32 29">
  <g fill="none" fill-rule="evenodd" opacity=".8" transform="translate(1)">
    <circle cx="16" cy="15" r="12" fill="#D8D8D8" fill-rule="nonzero" opacity=".8"/>
    <path fill="#333333" stroke="#333333" stroke-width="1.2" d="M3.47793939,14.5353939 C3.45163636,14.5353939 3.42448485,14.5328485 3.39818182,14.5277576 C3.28787879,14.5065455 3.19030303,14.4420606 3.12666667,14.3495758 L0.072969697,9.85260606 C-0.0576969697,9.65830303 -0.00848484848,9.39442424 0.185818182,9.26290909 C0.379272727,9.13309091 0.644,9.18230303 0.775515152,9.37575758 L3.58993939,13.522303 L7.73563636,10.7061818 C7.92909091,10.5763636 8.19212121,10.6255758 8.32533333,10.8190303 C8.456,11.0133333 8.40678788,11.2772121 8.21248485,11.4087273 L3.71551515,14.4632727 C3.64509091,14.5107879 3.56193939,14.5353939 3.47793939,14.5353939 Z"/>
    <path fill="#333333" stroke="#333333" stroke-width="1.2" d="M16.4860606,27.5426667 C12.0162424,27.5426667 7.85272727,25.3289697 5.348,21.6210909 C5.21648485,21.4267879 5.26739394,21.1629091 5.46169697,21.0322424 C5.65515152,20.9007273 5.9190303,20.9516364 6.05054545,21.1459394 C8.39745455,24.6204848 12.2979394,26.6941818 16.4860606,26.6941818 C23.4249697,26.6941818 29.0699394,21.0492121 29.0699394,14.110303 C29.0699394,7.17139394 23.4249697,1.52642424 16.4860606,1.52642424 C9.54715152,1.52642424 3.90218182,7.17224242 3.90218182,14.110303 C3.90218182,14.3444848 3.71212121,14.5345455 3.47793939,14.5345455 C3.24375758,14.5345455 3.05369697,14.3444848 3.05369697,14.110303 C3.05369697,6.70387879 9.07963636,0.677939394 16.4860606,0.677939394 C23.8924848,0.677939394 29.9184242,6.70387879 29.9184242,14.110303 C29.9184242,21.5167273 23.8924848,27.5426667 16.4860606,27.5426667 Z"/>
    <path fill="#333333" stroke="#333333" stroke-width="1.2" d="M20.5392727,20.430303 C20.4170909,20.430303 20.2966061,20.377697 20.2126061,20.2767273 L16.1593939,15.3809697 C16.0966061,15.3046061 16.0618182,15.2087273 16.0618182,15.110303 L16.0618182,6.97587879 C16.0618182,6.74169697 16.2518788,6.55163636 16.4860606,6.55163636 C16.7202424,6.55163636 16.910303,6.74169697 16.910303,6.97587879 L16.910303,14.9584242 L20.8659394,19.7353939 C21.0161212,19.9161212 20.9898182,20.1833939 20.8107879,20.3327273 C20.7310303,20.3980606 20.634303,20.430303 20.5392727,20.430303 Z"/>
  </g>
</svg>
