<svg xmlns="http://www.w3.org/2000/svg" width="28" height="30" viewBox="0 0 28 30">
  <g fill="none" fill-rule="evenodd">
    <path fill="#FF9F06" d="M7.97307692,6.73461538 C14.6807692,0.1 22.7884615,-1.61538462 26.0230769,2.91923077 C29.2576923,7.45384615 26.4076923,16.5615385 19.7192308,23.2 C13.0307692,29.8384615 4.90384615,31.5384615 1.66923077,27.0153846 C-1.56538462,22.4923077 1.28461538,13.3692308 7.97307692,6.73461538"/>
    <path fill="#CD252C" d="M12.4115385,3.19615385 C11.629116,3.77495786 10.8887918,4.4086034 10.1961538,5.09230769 C4.31923077,10.8615385 1.87692308,18.8115385 4.76923077,22.7846154 C7.75769231,26.7576923 15,25.3115385 20.9576923,19.4461538 C24.1692308,16.3307692 26.3423077,12.6769231 27.2423077,9.29230769 C27.5115385,6.81153846 27.1538462,4.59615385 26.0230769,2.92692308 C23.4461538,-0.592307692 17.9461538,-0.323076923 12.4153846,3.19615385"/>
    <path fill="#FFFFFF" d="M15.7346154,26.4730769 C12.5961538,28.8461538 9.35384615,30 6.18846154,29.5076923 C7.51538462,29.5769231 8.58846154,28.1038462 9.46923077,26.1307692 C10.2577193,24.3047175 10.8794814,22.4111107 11.3269231,20.4730769 C11.95,17.6923077 12,15.7038462 11.6807692,15.2769231 C11.1423077,14.5692308 9.92307692,14.7538462 8.54230769,15.5461538 C7.88461538,15.9307692 7.00384615,15.6692308 8.04230769,14.3923077 C9.08076923,13.1153846 13.2692308,10.0884615 14.7692308,9.61538462 C16.4192308,9.13846154 18.3,9.78846154 17.6653846,11.5923077 C17.2153846,12.9115385 11.4346154,28.05 15.7423077,26.4769231 M20.4615385,2.98846154 C21.2307692,3.75769231 20.7653846,5.47692308 19.4346154,6.83461538 C18.1038462,8.19230769 16.3576923,8.63846154 15.5884615,7.87307692 C14.8192308,7.10769231 15.2576923,5.37307692 16.6038462,4.02692308 C17.95,2.68076923 19.7076923,2.25769231 20.45,3.01538462"/>
  </g>
</svg>
