<?xml version="1.0" encoding="utf-8"?>
<svg version="1.1" xmlns="http://www.w3.org/2000/svg" xmlns:xlink="http://www.w3.org/1999/xlink" height="18.5263157894737" width="32">
  <defs>
    <path id="path-0" opacity="1" fill-rule="evenodd" d="M30.315784881476343,9.28159195095226 C30.305608756612795,14.395080732381516 26.153853389872264,18.533088173501255 21.04035514672843,18.526307468018707 C15.926856903584603,18.519526762536167 11.786090465197319,14.370523102117144 11.789475758471857,9.25702531577055 C11.792861051746396,4.143527529423957 15.93911739488402,0.000010125499823138572 21.052620133767444,0 C23.511809068064892,0.0024433050002307297 25.869305291622847,0.9816954338659031 27.60648592448657,2.722331838214216 C29.34366655735029,4.462968242562527 30.31823061824969,6.822404861940959 30.315784881476343,9.28159195095226Z"/>
    <path id="path-1" opacity="1" fill-rule="evenodd" d="M18.52631578947368,9.281591993456694 C18.516139919713407,14.394930831359504 14.364617569022833,18.53287651794721 9.251267745950262,18.526307980161505 C4.137917922877693,18.5197394423758 -0.002959628366963977,14.371141454659739 0.000001587223414800389,9.257793348912921 C0.002962802813793578,4.144445243166105 4.148642603996542,0.0006461139611434845 9.26199660518075,0 C11.721186150449258,0.0024433050114223472 14.07868295971332,0.9816954383615154 15.815864024169372,2.7223318506809564 C17.55304508862542,4.462968263000397 18.527609391649545,6.822404893183712 18.52631578947368,9.281591993456694Z"/>
    <path id="path-2" opacity="1" fill-rule="evenodd" d="M15.158937512405101,1.6842105263157947 C13.031553177602014,3.51187354217958 11.78947368421052,6.305687510158343 11.78947368421052,9.263157894736851 C11.78947368421052,12.220628279315354 13.031553177602014,15.014442247294122 15.158937512405101,16.842105263157904 C17.285086871754437,15.014372110478783 18.526315789473678,12.22140285128134 18.526315789473678,9.264950173004646 C18.526315789473678,6.308497494727947 17.285086871754437,3.5155282355305033 15.158937512405101,1.6842105263157947Z"/>
    <path id="path-3" opacity="1" fill-rule="evenodd" d="M32,13.473686218261719 L32,15.15789794921875 L31.866893768310547,15.15789794921875 L31.866893768310547,13.888893127441406 L31.64685821533203,14.982460021972656 L31.497455596923828,14.982460021972656 L31.269271850585938,13.888893127441406 L31.269271850585938,15.15789794921875 L31.12529754638672,15.15789794921875 L31.12529754638672,13.473686218261719 L31.32903289794922,13.473686218261719 L31.56264877319336,14.643280029296875 L31.7962646484375,13.473686218261719 L32,13.473686218261719 L32,13.473686218261719ZM30.709674835205078,13.766082763671875 L30.709674835205078,15.157890319824219 L30.58743667602539,15.157890319824219 L30.58743667602539,13.766082763671875 L30.31578826904297,13.766082763671875 L30.31578826904297,13.479530334472656 L30.9813232421875,13.479530334472656 L30.9813232421875,13.766082763671875 L30.709674835205078,13.766082763671875 L30.709674835205078,13.766082763671875Z"/>
  </defs>
  <g opacity="1">
    <g opacity="1">
      <use xlink:href="#path-0" fill="rgb(247,159,26)" fill-opacity="1"/>
    </g>
    <g opacity="1">
      <use xlink:href="#path-1" fill="rgb(234,0,27)" fill-opacity="1"/>
    </g>
    <g opacity="1">
      <use xlink:href="#path-2" fill="rgb(255,95,1)" fill-opacity="1"/>
    </g>
    <g opacity="1">
      <use xlink:href="#path-3" fill="rgb(247,159,26)" fill-opacity="1"/>
    </g>
  </g>
</svg>